<?xml version="1.0" encoding="UTF-8"?>
<svg id="Ebene_3" data-name="Ebene 3" xmlns="http://www.w3.org/2000/svg" xmlns:xlink="http://www.w3.org/1999/xlink" viewBox="0 0 288.64 230.31">
  <defs>
    <style>
      .cls-1, .cls-2, .cls-3, .cls-4, .cls-5 {
        fill: none;
      }

      .cls-2 {
        stroke-dasharray: 12.42 8.28;
      }

      .cls-2, .cls-3, .cls-4 {
        stroke: #e0e0e1;
      }

      .cls-2, .cls-3, .cls-4, .cls-5 {
        stroke-miterlimit: 10;
        stroke-width: 6px;
      }

      .cls-4 {
        stroke-dasharray: 12.38 8.25;
      }

      .cls-6 {
        clip-path: url(#clippath);
      }

      .cls-5 {
        stroke: #4d3d42;
      }
    </style>
    <clipPath id="clippath">
      <rect class="cls-1" x="14.07" y="12.81" width="258.56" height="205"/>
    </clipPath>
  </defs>
  <g class="cls-6">
    <g>
      <circle class="cls-3" cx="79.67" cy="113.31" r="17.06"/>
      <circle class="cls-3" cx="233.92" cy="113.31" r="17.06"/>
      <ellipse class="cls-3" cx="13.76" cy="113.81" rx="100.2" ry="75.03"/>
      <g>
        <path class="cls-3" d="M153.22,143.42c-.69,1.87-1.45,3.72-2.27,5.55"/>
        <path class="cls-4" d="M147.25,156.33c-11.82,21.15-32.25,38.93-57.99,50.9"/>
        <path class="cls-3" d="M85.48,208.93c-1.83.79-3.68,1.56-5.55,2.29"/>
      </g>
      <g>
        <path class="cls-3" d="M81.95,17.67c1.86.76,3.7,1.55,5.52,2.36"/>
        <path class="cls-2" d="M94.92,23.62c25.33,13.02,44.91,31.86,55.32,53.94"/>
        <path class="cls-3" d="M151.92,81.34c.77,1.85,1.48,3.72,2.12,5.61"/>
      </g>
      <ellipse class="cls-3" cx="12.18" cy="114.04" rx="189.78" ry="142.11"/>
      <ellipse class="cls-3" cx="12.18" cy="114.04" rx="254.43" ry="190.52"/>
      <ellipse class="cls-3" cx="-53.01" cy="113.81" rx="100.2" ry="75.03"/>
      <circle class="cls-5" cx="157.8" cy="115.31" r="28.16"/>
    </g>
  </g>
</svg>